<svg width="30" height="31" viewBox="0 0 30 31" fill="none" xmlns="http://www.w3.org/2000/svg">
<path d="M20 26.4271V23.9226C20 22.5941 19.4732 21.32 18.5355 20.3806C17.5979 19.4412 16.3261 18.9135 15 18.9135H6.25C4.92392 18.9135 3.65215 19.4412 2.71447 20.3806C1.77678 21.32 1.25 22.5941 1.25 23.9226V26.4271M25 10.1475V17.6612M28.75 13.9044H21.25M15.625 8.89526C15.625 11.6617 13.3864 13.9044 10.625 13.9044C7.86358 13.9044 5.625 11.6617 5.625 8.89526C5.625 6.12881 7.86358 3.88615 10.625 3.88615C13.3864 3.88615 15.625 6.12881 15.625 8.89526Z" stroke="#ADA8A8" stroke-width="2" stroke-linecap="round" stroke-linejoin="round"/>
</svg>
