<svg width="30" height="31" viewBox="0 0 30 31" fill="none" xmlns="http://www.w3.org/2000/svg">
<path d="M20 26.5364V24.0319C20 22.7034 19.4732 21.4293 18.5355 20.4899C17.5979 19.5505 16.3261 19.0228 15 19.0228H6.25C4.92392 19.0228 3.65215 19.5505 2.71447 20.4899C1.77678 21.4293 1.25 22.7034 1.25 24.0319V26.5364M28.75 14.0137H21.25M15.625 9.00456C15.625 11.771 13.3864 14.0137 10.625 14.0137C7.86358 14.0137 5.625 11.771 5.625 9.00456C5.625 6.23811 7.86358 3.99545 10.625 3.99545C13.3864 3.99545 15.625 6.23811 15.625 9.00456Z" stroke="#ADA8A8" stroke-width="2" stroke-linecap="round" stroke-linejoin="round"/>
</svg>
