<svg width="30" height="31" viewBox="0 0 30 31" fill="none" xmlns="http://www.w3.org/2000/svg">
<g clip-path="url(#clip0_132_276)">
<path d="M15 19.3506C17.0711 19.3506 18.75 17.6686 18.75 15.5938C18.75 13.519 17.0711 11.837 15 11.837C12.9289 11.837 11.25 13.519 11.25 15.5938C11.25 17.6686 12.9289 19.3506 15 19.3506Z" stroke="#ADA8A8" stroke-width="2" stroke-linecap="round" stroke-linejoin="round"/>
<path d="M24.25 19.3506C24.0836 19.7283 24.034 20.1473 24.1075 20.5536C24.181 20.9598 24.3743 21.3346 24.6625 21.6298L24.7375 21.7049C24.9699 21.9375 25.1543 22.2137 25.2801 22.5178C25.406 22.8218 25.4707 23.1477 25.4707 23.4769C25.4707 23.806 25.406 24.1319 25.2801 24.436C25.1543 24.74 24.9699 25.0163 24.7375 25.2489C24.5053 25.4817 24.2296 25.6665 23.9261 25.7925C23.6226 25.9185 23.2973 25.9834 22.9688 25.9834C22.6402 25.9834 22.3149 25.9185 22.0114 25.7925C21.7079 25.6665 21.4322 25.4817 21.2 25.2489L21.125 25.1737C20.8304 24.885 20.4562 24.6914 20.0507 24.6177C19.6452 24.544 19.227 24.5938 18.85 24.7605C18.4803 24.9192 18.165 25.1828 17.9429 25.5188C17.7208 25.8547 17.6016 26.2484 17.6 26.6514V26.8643C17.6 27.5285 17.3366 28.1656 16.8678 28.6353C16.3989 29.105 15.763 29.3688 15.1 29.3688C14.437 29.3688 13.8011 29.105 13.3322 28.6353C12.8634 28.1656 12.6 27.5285 12.6 26.8643V26.7516C12.5903 26.3371 12.4564 25.9351 12.2156 25.5979C11.9749 25.2606 11.6384 25.0038 11.25 24.8607C10.873 24.694 10.4548 24.6442 10.0493 24.7179C9.64377 24.7915 9.2696 24.9852 8.975 25.2739L8.9 25.349C8.66782 25.5819 8.3921 25.7666 8.0886 25.8927C7.78511 26.0187 7.45979 26.0836 7.13125 26.0836C6.80271 26.0836 6.47739 26.0187 6.1739 25.8927C5.8704 25.7666 5.59468 25.5819 5.3625 25.349C5.13006 25.1164 4.94566 24.8402 4.81985 24.5362C4.69404 24.2321 4.62928 23.9062 4.62928 23.5771C4.62928 23.2479 4.69404 22.922 4.81985 22.618C4.94566 22.3139 5.13006 22.0377 5.3625 21.8051L5.4375 21.73C5.72567 21.4348 5.91898 21.06 5.99251 20.6537C6.06603 20.2475 6.01639 19.8285 5.85 19.4508C5.69155 19.0804 5.42844 18.7645 5.09308 18.542C4.75772 18.3195 4.36473 18.2001 3.9625 18.1985H3.75C3.08696 18.1985 2.45107 17.9347 1.98223 17.465C1.51339 16.9953 1.25 16.3582 1.25 15.694C1.25 15.0297 1.51339 14.3927 1.98223 13.923C2.45107 13.4533 3.08696 13.1894 3.75 13.1894H3.8625C4.27624 13.1797 4.67751 13.0456 5.01412 12.8044C5.35074 12.5632 5.60714 12.2261 5.75 11.837C5.91639 11.4593 5.96603 11.0403 5.89251 10.634C5.81898 10.2278 5.62567 9.85296 5.3375 9.55783L5.2625 9.48269C5.03006 9.25008 4.84566 8.97386 4.71985 8.66981C4.59404 8.36577 4.52928 8.03986 4.52928 7.71072C4.52928 7.38158 4.59404 7.05567 4.71985 6.75162C4.84566 6.44758 5.03006 6.17135 5.2625 5.93875C5.49468 5.70588 5.7704 5.52115 6.0739 5.39511C6.37739 5.26907 6.70271 5.20419 7.03125 5.20419C7.35979 5.20419 7.68511 5.26907 7.9886 5.39511C8.2921 5.52115 8.56782 5.70588 8.8 5.93875L8.875 6.01388C9.1696 6.30258 9.54377 6.49624 9.94926 6.5699C10.3548 6.64356 10.773 6.59383 11.15 6.42713H11.25C11.6197 6.26839 11.935 6.00481 12.1571 5.66884C12.3792 5.33286 12.4984 4.93916 12.5 4.5362V4.32331C12.5 3.65906 12.7634 3.02202 13.2322 2.55232C13.7011 2.08263 14.337 1.81876 15 1.81876C15.663 1.81876 16.2989 2.08263 16.7678 2.55232C17.2366 3.02202 17.5 3.65906 17.5 4.32331V4.43601C17.5016 4.83898 17.6208 5.23268 17.8429 5.56866C18.065 5.90463 18.3803 6.16821 18.75 6.32695C19.127 6.49365 19.5452 6.54338 19.9507 6.46972C20.3562 6.39606 20.7304 6.2024 21.025 5.9137L21.1 5.83856C21.3322 5.6057 21.6079 5.42097 21.9114 5.29493C22.2149 5.16889 22.5402 5.10401 22.8688 5.10401C23.1973 5.10401 23.5226 5.16889 23.8261 5.29493C24.1296 5.42097 24.4053 5.6057 24.6375 5.83856C24.8699 6.07117 25.0543 6.34739 25.1801 6.65144C25.306 6.95549 25.3707 7.2814 25.3707 7.61054C25.3707 7.93967 25.306 8.26558 25.1801 8.56963C25.0543 8.87368 24.8699 9.1499 24.6375 9.38251L24.5625 9.45765C24.2743 9.75278 24.081 10.1276 24.0075 10.5339C23.934 10.9401 23.9836 11.3591 24.15 11.7368V11.837C24.3085 12.2074 24.5716 12.5232 24.9069 12.7457C25.2423 12.9682 25.6353 13.0876 26.0375 13.0892H26.25C26.913 13.0892 27.5489 13.3531 28.0178 13.8228C28.4866 14.2925 28.75 14.9296 28.75 15.5938C28.75 16.2581 28.4866 16.8951 28.0178 17.3648C27.5489 17.8345 26.913 18.0984 26.25 18.0984H26.1375C25.7353 18.1 25.3423 18.2194 25.0069 18.4419C24.6716 18.6644 24.4085 18.9802 24.25 19.3506Z" stroke="#ADA8A8" stroke-width="2" stroke-linecap="round" stroke-linejoin="round"/>
</g>
<defs>
<clipPath id="clip0_132_276">
<rect width="30" height="30.0546" fill="white" transform="translate(0 0.566467)"/>
</clipPath>
</defs>
</svg>
