<svg width="55" height="55" viewBox="0 0 55 55" fill="none" xmlns="http://www.w3.org/2000/svg">
<path d="M27.5 25.2083V38.9583M20.625 32.0833H34.375M50.4166 43.5417C50.4166 44.7572 49.9338 45.923 49.0742 46.7826C48.2147 47.6421 47.0489 48.125 45.8333 48.125H9.16665C7.95107 48.125 6.78528 47.6421 5.92574 46.7826C5.0662 45.923 4.58331 44.7572 4.58331 43.5417V11.4583C4.58331 10.2428 5.0662 9.07697 5.92574 8.21743C6.78528 7.35789 7.95107 6.875 9.16665 6.875H20.625L25.2083 13.75H45.8333C47.0489 13.75 48.2147 14.2329 49.0742 15.0924C49.9338 15.952 50.4166 17.1178 50.4166 18.3333V43.5417Z" stroke="black" stroke-width="3" stroke-linecap="round" stroke-linejoin="round"/>
</svg>
