<svg width="55" height="55" viewBox="0 0 55 55" fill="none" xmlns="http://www.w3.org/2000/svg">
<path d="M11.4583 48.125H43.5417C46.073 48.125 48.125 46.073 48.125 43.5417V11.4583C48.125 8.92703 46.073 6.875 43.5417 6.875H11.4583C8.92703 6.875 6.875 8.92703 6.875 11.4583V43.5417C6.875 46.073 8.92703 48.125 11.4583 48.125ZM11.4583 48.125L36.6667 22.9167L48.125 34.375M22.9167 19.4792C22.9167 21.3776 21.3776 22.9167 19.4792 22.9167C17.5807 22.9167 16.0417 21.3776 16.0417 19.4792C16.0417 17.5807 17.5807 16.0417 19.4792 16.0417C21.3776 16.0417 22.9167 17.5807 22.9167 19.4792Z" stroke="black" stroke-width="3" stroke-linecap="round" stroke-linejoin="round"/>
</svg>
